<mxfile host="app.diagrams.net" agent="Mozilla/5.0 (Windows NT 10.0; Win64; x64) AppleWebKit/537.36 (KHTML, like Gecko) Chrome/137.0.0.0 Safari/537.36" version="27.2.0">
  <diagram name="Page-1" id="FQx9qd__tNly6pvX8LML">
    <mxGraphModel dx="996" dy="1724" grid="0" gridSize="10" guides="1" tooltips="1" connect="1" arrows="1" fold="1" page="1" pageScale="1" pageWidth="850" pageHeight="1100" math="0" shadow="0">
      <root>
        <mxCell id="0" />
        <mxCell id="1" parent="0" />
        <mxCell id="LWM4A1ETtg7lc_S0Syz--2" value="" style="rounded=0;whiteSpace=wrap;html=1;" vertex="1" parent="1">
          <mxGeometry x="189" y="-1051" width="463" height="331" as="geometry" />
        </mxCell>
        <mxCell id="LWM4A1ETtg7lc_S0Syz--3" value="&amp;nbsp; &amp;nbsp; &amp;nbsp;Configure Analysis on &amp;lt;filename&amp;gt;" style="rounded=1;whiteSpace=wrap;html=1;align=left;" vertex="1" parent="1">
          <mxGeometry x="193.5" y="-1041" width="454" height="40" as="geometry" />
        </mxCell>
        <mxCell id="LWM4A1ETtg7lc_S0Syz--4" value="Start" style="strokeWidth=1;shadow=0;dashed=0;align=center;html=1;shape=mxgraph.mockup.buttons.button;strokeColor=#666666;fontColor=#ffffff;mainText=;buttonStyle=round;fontSize=17;fontStyle=1;fillColor=#008cff;whiteSpace=wrap;" vertex="1" parent="1">
          <mxGeometry x="542" y="-752" width="94" height="26" as="geometry" />
        </mxCell>
        <mxCell id="LWM4A1ETtg7lc_S0Syz--5" value="" style="swimlane;shape=mxgraph.bootstrap.anchor;strokeColor=#000000;fillColor=#ffffff;fontColor=#161616;fontStyle=0;childLayout=stackLayout;horizontal=0;startSize=0;horizontalStack=1;resizeParent=1;resizeParentMax=0;resizeLast=0;collapsible=0;marginBottom=0;whiteSpace=wrap;html=1;fontSize=14;" vertex="1" parent="1">
          <mxGeometry x="189" y="-978" width="250" height="22" as="geometry" />
        </mxCell>
        <mxCell id="LWM4A1ETtg7lc_S0Syz--6" value="&lt;font style=&quot;color: rgb(0, 0, 0);&quot;&gt;General&lt;/font&gt;" style="text;strokeColor=#000000;align=center;verticalAlign=middle;spacingLeft=10;spacingRight=10;overflow=hidden;points=[[0,0.5],[1,0.5]];portConstraint=eastwest;rotatable=0;whiteSpace=wrap;html=1;shape=mxgraph.mockup.leftButton;rSize=10;fillColor=#FFFFFF;fontColor=#ffffff;fontSize=15;fontStyle=1;" vertex="1" parent="LWM4A1ETtg7lc_S0Syz--5">
          <mxGeometry width="125" height="22" as="geometry" />
        </mxCell>
        <mxCell id="LWM4A1ETtg7lc_S0Syz--7" value="Shared Objects" style="text;strokeColor=inherit;align=center;verticalAlign=middle;spacingLeft=10;spacingRight=10;overflow=hidden;points=[[0,0.5],[1,0.5]];portConstraint=eastwest;rotatable=0;whiteSpace=wrap;html=1;rSize=5;fillColor=inherit;fontColor=inherit;fontSize=14;fontStyle=1;" vertex="1" parent="LWM4A1ETtg7lc_S0Syz--5">
          <mxGeometry x="125" width="125" height="22" as="geometry" />
        </mxCell>
        <mxCell id="LWM4A1ETtg7lc_S0Syz--8" value="&lt;font&gt;Entrypoints&lt;/font&gt;" style="text;strokeColor=#001DBC;align=center;verticalAlign=middle;spacingLeft=10;spacingRight=10;overflow=hidden;points=[[0,0.5],[1,0.5]];portConstraint=eastwest;rotatable=0;whiteSpace=wrap;html=1;rSize=5;fillColor=#0050ef;fontSize=14;fontStyle=1;fontColor=#ffffff;glass=0;rounded=1;" vertex="1" parent="1">
          <mxGeometry x="439" y="-978" width="125" height="22" as="geometry" />
        </mxCell>
        <mxCell id="LWM4A1ETtg7lc_S0Syz--9" value="Back" style="strokeWidth=1;shadow=0;dashed=0;align=center;html=1;shape=mxgraph.mockup.buttons.button;mainText=;buttonStyle=round;fontSize=17;fontStyle=1;whiteSpace=wrap;" vertex="1" parent="1">
          <mxGeometry x="439" y="-752" width="94" height="26" as="geometry" />
        </mxCell>
        <mxCell id="LWM4A1ETtg7lc_S0Syz--10" value="" style="rounded=0;whiteSpace=wrap;html=1;" vertex="1" parent="1">
          <mxGeometry x="189" y="-956" width="463" height="199" as="geometry" />
        </mxCell>
        <mxCell id="LWM4A1ETtg7lc_S0Syz--26" value="" style="shape=table;html=1;whiteSpace=wrap;startSize=0;container=1;collapsible=0;childLayout=tableLayout;strokeWidth=2;rounded=1;arcSize=0;" vertex="1" parent="1">
          <mxGeometry x="389" y="-892" width="225" height="80" as="geometry" />
        </mxCell>
        <mxCell id="LWM4A1ETtg7lc_S0Syz--27" value="" style="shape=tableRow;horizontal=0;startSize=0;swimlaneHead=0;swimlaneBody=0;top=0;left=0;bottom=0;right=0;collapsible=0;dropTarget=0;fillColor=none;points=[[0,0.5],[1,0.5]];portConstraint=eastwest;" vertex="1" parent="LWM4A1ETtg7lc_S0Syz--26">
          <mxGeometry width="225" height="27" as="geometry" />
        </mxCell>
        <mxCell id="LWM4A1ETtg7lc_S0Syz--28" value="Function" style="shape=partialRectangle;html=1;whiteSpace=wrap;connectable=0;fillColor=none;top=0;left=0;bottom=0;right=0;overflow=hidden;fontStyle=1" vertex="1" parent="LWM4A1ETtg7lc_S0Syz--27">
          <mxGeometry width="114" height="27" as="geometry">
            <mxRectangle width="114" height="27" as="alternateBounds" />
          </mxGeometry>
        </mxCell>
        <mxCell id="LWM4A1ETtg7lc_S0Syz--29" value="File" style="shape=partialRectangle;html=1;whiteSpace=wrap;connectable=0;fillColor=none;top=0;left=0;bottom=0;right=0;overflow=hidden;fontStyle=1" vertex="1" parent="LWM4A1ETtg7lc_S0Syz--27">
          <mxGeometry x="114" width="111" height="27" as="geometry">
            <mxRectangle width="111" height="27" as="alternateBounds" />
          </mxGeometry>
        </mxCell>
        <mxCell id="LWM4A1ETtg7lc_S0Syz--30" value="" style="shape=tableRow;horizontal=0;startSize=0;swimlaneHead=0;swimlaneBody=0;top=0;left=0;bottom=0;right=0;collapsible=0;dropTarget=0;fillColor=none;points=[[0,0.5],[1,0.5]];portConstraint=eastwest;" vertex="1" parent="LWM4A1ETtg7lc_S0Syz--26">
          <mxGeometry y="27" width="225" height="26" as="geometry" />
        </mxCell>
        <mxCell id="LWM4A1ETtg7lc_S0Syz--31" value="" style="shape=partialRectangle;html=1;whiteSpace=wrap;connectable=0;fillColor=none;top=0;left=0;bottom=0;right=0;overflow=hidden;" vertex="1" parent="LWM4A1ETtg7lc_S0Syz--30">
          <mxGeometry width="114" height="26" as="geometry">
            <mxRectangle width="114" height="26" as="alternateBounds" />
          </mxGeometry>
        </mxCell>
        <mxCell id="LWM4A1ETtg7lc_S0Syz--32" value="" style="shape=partialRectangle;html=1;whiteSpace=wrap;connectable=0;fillColor=none;top=0;left=0;bottom=0;right=0;overflow=hidden;" vertex="1" parent="LWM4A1ETtg7lc_S0Syz--30">
          <mxGeometry x="114" width="111" height="26" as="geometry">
            <mxRectangle width="111" height="26" as="alternateBounds" />
          </mxGeometry>
        </mxCell>
        <mxCell id="LWM4A1ETtg7lc_S0Syz--33" value="" style="shape=tableRow;horizontal=0;startSize=0;swimlaneHead=0;swimlaneBody=0;top=0;left=0;bottom=0;right=0;collapsible=0;dropTarget=0;fillColor=none;points=[[0,0.5],[1,0.5]];portConstraint=eastwest;" vertex="1" parent="LWM4A1ETtg7lc_S0Syz--26">
          <mxGeometry y="53" width="225" height="27" as="geometry" />
        </mxCell>
        <mxCell id="LWM4A1ETtg7lc_S0Syz--34" value="" style="shape=partialRectangle;html=1;whiteSpace=wrap;connectable=0;fillColor=none;top=0;left=0;bottom=0;right=0;overflow=hidden;" vertex="1" parent="LWM4A1ETtg7lc_S0Syz--33">
          <mxGeometry width="114" height="27" as="geometry">
            <mxRectangle width="114" height="27" as="alternateBounds" />
          </mxGeometry>
        </mxCell>
        <mxCell id="LWM4A1ETtg7lc_S0Syz--35" value="" style="shape=partialRectangle;html=1;whiteSpace=wrap;connectable=0;fillColor=none;top=0;left=0;bottom=0;right=0;overflow=hidden;" vertex="1" parent="LWM4A1ETtg7lc_S0Syz--33">
          <mxGeometry x="114" width="111" height="27" as="geometry">
            <mxRectangle width="111" height="27" as="alternateBounds" />
          </mxGeometry>
        </mxCell>
        <mxCell id="LWM4A1ETtg7lc_S0Syz--36" value="" style="shape=table;html=1;whiteSpace=wrap;startSize=0;container=1;collapsible=0;childLayout=tableLayout;strokeWidth=2;" vertex="1" parent="1">
          <mxGeometry x="221" y="-892" width="167.75" height="80" as="geometry" />
        </mxCell>
        <mxCell id="LWM4A1ETtg7lc_S0Syz--37" value="" style="shape=tableRow;horizontal=0;startSize=0;swimlaneHead=0;swimlaneBody=0;top=0;left=0;bottom=0;right=0;collapsible=0;dropTarget=0;fillColor=none;points=[[0,0.5],[1,0.5]];portConstraint=eastwest;" vertex="1" parent="LWM4A1ETtg7lc_S0Syz--36">
          <mxGeometry width="167.75" height="27" as="geometry" />
        </mxCell>
        <mxCell id="LWM4A1ETtg7lc_S0Syz--38" value="" style="shape=partialRectangle;html=1;whiteSpace=wrap;connectable=0;fillColor=none;top=0;left=0;bottom=0;right=0;overflow=hidden;fontStyle=1" vertex="1" parent="LWM4A1ETtg7lc_S0Syz--37">
          <mxGeometry width="56" height="27" as="geometry">
            <mxRectangle width="56" height="27" as="alternateBounds" />
          </mxGeometry>
        </mxCell>
        <mxCell id="LWM4A1ETtg7lc_S0Syz--39" value="Address" style="shape=partialRectangle;html=1;whiteSpace=wrap;connectable=0;fillColor=none;top=0;left=0;bottom=0;right=0;overflow=hidden;fontStyle=1;" vertex="1" parent="LWM4A1ETtg7lc_S0Syz--37">
          <mxGeometry x="56" width="112" height="27" as="geometry">
            <mxRectangle width="112" height="27" as="alternateBounds" />
          </mxGeometry>
        </mxCell>
        <mxCell id="LWM4A1ETtg7lc_S0Syz--40" value="" style="shape=tableRow;horizontal=0;startSize=0;swimlaneHead=0;swimlaneBody=0;top=0;left=0;bottom=0;right=0;collapsible=0;dropTarget=0;fillColor=none;points=[[0,0.5],[1,0.5]];portConstraint=eastwest;" vertex="1" parent="LWM4A1ETtg7lc_S0Syz--36">
          <mxGeometry y="27" width="167.75" height="26" as="geometry" />
        </mxCell>
        <mxCell id="LWM4A1ETtg7lc_S0Syz--41" value="" style="shape=partialRectangle;html=1;whiteSpace=wrap;connectable=0;fillColor=none;top=0;left=0;bottom=0;right=0;overflow=hidden;" vertex="1" parent="LWM4A1ETtg7lc_S0Syz--40">
          <mxGeometry width="56" height="26" as="geometry">
            <mxRectangle width="56" height="26" as="alternateBounds" />
          </mxGeometry>
        </mxCell>
        <mxCell id="LWM4A1ETtg7lc_S0Syz--42" value="" style="shape=partialRectangle;html=1;whiteSpace=wrap;connectable=0;fillColor=none;top=0;left=0;bottom=0;right=0;overflow=hidden;" vertex="1" parent="LWM4A1ETtg7lc_S0Syz--40">
          <mxGeometry x="56" width="112" height="26" as="geometry">
            <mxRectangle width="112" height="26" as="alternateBounds" />
          </mxGeometry>
        </mxCell>
        <mxCell id="LWM4A1ETtg7lc_S0Syz--43" value="" style="shape=tableRow;horizontal=0;startSize=0;swimlaneHead=0;swimlaneBody=0;top=0;left=0;bottom=0;right=0;collapsible=0;dropTarget=0;fillColor=none;points=[[0,0.5],[1,0.5]];portConstraint=eastwest;" vertex="1" parent="LWM4A1ETtg7lc_S0Syz--36">
          <mxGeometry y="53" width="167.75" height="27" as="geometry" />
        </mxCell>
        <mxCell id="LWM4A1ETtg7lc_S0Syz--44" value="" style="shape=partialRectangle;html=1;whiteSpace=wrap;connectable=0;fillColor=none;top=0;left=0;bottom=0;right=0;overflow=hidden;" vertex="1" parent="LWM4A1ETtg7lc_S0Syz--43">
          <mxGeometry width="56" height="27" as="geometry">
            <mxRectangle width="56" height="27" as="alternateBounds" />
          </mxGeometry>
        </mxCell>
        <mxCell id="LWM4A1ETtg7lc_S0Syz--45" value="" style="shape=partialRectangle;html=1;whiteSpace=wrap;connectable=0;fillColor=none;top=0;left=0;bottom=0;right=0;overflow=hidden;" vertex="1" parent="LWM4A1ETtg7lc_S0Syz--43">
          <mxGeometry x="56" width="112" height="27" as="geometry">
            <mxRectangle width="112" height="27" as="alternateBounds" />
          </mxGeometry>
        </mxCell>
        <mxCell id="LWM4A1ETtg7lc_S0Syz--48" value="" style="shape=table;html=1;whiteSpace=wrap;startSize=0;container=1;collapsible=0;childLayout=tableLayout;strokeWidth=2;" vertex="1" parent="1">
          <mxGeometry x="389" y="-812" width="225" height="27" as="geometry" />
        </mxCell>
        <mxCell id="LWM4A1ETtg7lc_S0Syz--49" value="" style="shape=tableRow;horizontal=0;startSize=0;swimlaneHead=0;swimlaneBody=0;top=0;left=0;bottom=0;right=0;collapsible=0;dropTarget=0;fillColor=none;points=[[0,0.5],[1,0.5]];portConstraint=eastwest;" vertex="1" parent="LWM4A1ETtg7lc_S0Syz--48">
          <mxGeometry width="225" height="27" as="geometry" />
        </mxCell>
        <mxCell id="LWM4A1ETtg7lc_S0Syz--50" value="" style="shape=partialRectangle;html=1;whiteSpace=wrap;connectable=0;fillColor=none;top=0;left=0;bottom=0;right=0;overflow=hidden;fontStyle=1" vertex="1" parent="LWM4A1ETtg7lc_S0Syz--49">
          <mxGeometry width="114" height="27" as="geometry">
            <mxRectangle width="114" height="27" as="alternateBounds" />
          </mxGeometry>
        </mxCell>
        <mxCell id="LWM4A1ETtg7lc_S0Syz--51" value="" style="shape=partialRectangle;html=1;whiteSpace=wrap;connectable=0;fillColor=none;top=0;left=0;bottom=0;right=0;overflow=hidden;fontStyle=1" vertex="1" parent="LWM4A1ETtg7lc_S0Syz--49">
          <mxGeometry x="114" width="111" height="27" as="geometry">
            <mxRectangle width="111" height="27" as="alternateBounds" />
          </mxGeometry>
        </mxCell>
        <mxCell id="LWM4A1ETtg7lc_S0Syz--58" value="" style="shape=table;html=1;whiteSpace=wrap;startSize=0;container=1;collapsible=0;childLayout=tableLayout;strokeWidth=2;" vertex="1" parent="1">
          <mxGeometry x="221" y="-812" width="167.75" height="27" as="geometry" />
        </mxCell>
        <mxCell id="LWM4A1ETtg7lc_S0Syz--59" value="" style="shape=tableRow;horizontal=0;startSize=0;swimlaneHead=0;swimlaneBody=0;top=0;left=0;bottom=0;right=0;collapsible=0;dropTarget=0;fillColor=none;points=[[0,0.5],[1,0.5]];portConstraint=eastwest;" vertex="1" parent="LWM4A1ETtg7lc_S0Syz--58">
          <mxGeometry width="167.75" height="27" as="geometry" />
        </mxCell>
        <mxCell id="LWM4A1ETtg7lc_S0Syz--60" value="" style="shape=partialRectangle;html=1;whiteSpace=wrap;connectable=0;fillColor=none;top=0;left=0;bottom=0;right=0;overflow=hidden;fontStyle=1" vertex="1" parent="LWM4A1ETtg7lc_S0Syz--59">
          <mxGeometry width="56" height="27" as="geometry">
            <mxRectangle width="56" height="27" as="alternateBounds" />
          </mxGeometry>
        </mxCell>
        <mxCell id="LWM4A1ETtg7lc_S0Syz--61" value="" style="shape=partialRectangle;html=1;whiteSpace=wrap;connectable=0;fillColor=none;top=0;left=0;bottom=0;right=0;overflow=hidden;fontStyle=1" vertex="1" parent="LWM4A1ETtg7lc_S0Syz--59">
          <mxGeometry x="56" width="112" height="27" as="geometry">
            <mxRectangle width="112" height="27" as="alternateBounds" />
          </mxGeometry>
        </mxCell>
        <mxCell id="LWM4A1ETtg7lc_S0Syz--107" value="" style="endArrow=none;html=1;rounded=0;exitX=0.344;exitY=-0.086;exitDx=0;exitDy=0;exitPerimeter=0;" edge="1" parent="1" source="LWM4A1ETtg7lc_S0Syz--43">
          <mxGeometry width="50" height="50" relative="1" as="geometry">
            <mxPoint x="275" y="-849" as="sourcePoint" />
            <mxPoint x="390" y="-865" as="targetPoint" />
          </mxGeometry>
        </mxCell>
        <mxCell id="LWM4A1ETtg7lc_S0Syz--108" value="" style="endArrow=none;html=1;rounded=0;exitX=1.003;exitY=0.808;exitDx=0;exitDy=0;exitPerimeter=0;" edge="1" parent="1" source="LWM4A1ETtg7lc_S0Syz--40">
          <mxGeometry width="50" height="50" relative="1" as="geometry">
            <mxPoint x="381" y="-840" as="sourcePoint" />
            <mxPoint x="277" y="-864" as="targetPoint" />
          </mxGeometry>
        </mxCell>
        <mxCell id="LWM4A1ETtg7lc_S0Syz--109" value="" style="endArrow=none;html=1;rounded=0;exitX=1.003;exitY=0.808;exitDx=0;exitDy=0;exitPerimeter=0;" edge="1" parent="1">
          <mxGeometry width="50" height="50" relative="1" as="geometry">
            <mxPoint x="390" y="-817" as="sourcePoint" />
            <mxPoint x="278" y="-837" as="targetPoint" />
          </mxGeometry>
        </mxCell>
        <mxCell id="LWM4A1ETtg7lc_S0Syz--110" value="" style="endArrow=none;html=1;rounded=0;exitX=1.003;exitY=0.808;exitDx=0;exitDy=0;exitPerimeter=0;" edge="1" parent="1">
          <mxGeometry width="50" height="50" relative="1" as="geometry">
            <mxPoint x="502" y="-843" as="sourcePoint" />
            <mxPoint x="390" y="-863" as="targetPoint" />
          </mxGeometry>
        </mxCell>
        <mxCell id="LWM4A1ETtg7lc_S0Syz--111" value="" style="endArrow=none;html=1;rounded=0;exitX=1.003;exitY=0.808;exitDx=0;exitDy=0;exitPerimeter=0;" edge="1" parent="1">
          <mxGeometry width="50" height="50" relative="1" as="geometry">
            <mxPoint x="501" y="-815" as="sourcePoint" />
            <mxPoint x="389" y="-835" as="targetPoint" />
          </mxGeometry>
        </mxCell>
        <mxCell id="LWM4A1ETtg7lc_S0Syz--112" value="" style="endArrow=none;html=1;rounded=0;exitX=1.003;exitY=0.808;exitDx=0;exitDy=0;exitPerimeter=0;entryX=0.502;entryY=0.037;entryDx=0;entryDy=0;entryPerimeter=0;" edge="1" parent="1" target="LWM4A1ETtg7lc_S0Syz--33">
          <mxGeometry width="50" height="50" relative="1" as="geometry">
            <mxPoint x="613" y="-815" as="sourcePoint" />
            <mxPoint x="501" y="-835" as="targetPoint" />
          </mxGeometry>
        </mxCell>
        <mxCell id="LWM4A1ETtg7lc_S0Syz--113" value="" style="endArrow=none;html=1;rounded=0;exitX=1.003;exitY=0.808;exitDx=0;exitDy=0;exitPerimeter=0;entryX=0.502;entryY=0.037;entryDx=0;entryDy=0;entryPerimeter=0;" edge="1" parent="1">
          <mxGeometry width="50" height="50" relative="1" as="geometry">
            <mxPoint x="613" y="-841" as="sourcePoint" />
            <mxPoint x="502" y="-864" as="targetPoint" />
          </mxGeometry>
        </mxCell>
        <mxCell id="LWM4A1ETtg7lc_S0Syz--114" value="" style="endArrow=none;html=1;rounded=0;exitX=1.003;exitY=0.808;exitDx=0;exitDy=0;exitPerimeter=0;entryX=0.502;entryY=0.037;entryDx=0;entryDy=0;entryPerimeter=0;" edge="1" parent="1">
          <mxGeometry width="50" height="50" relative="1" as="geometry">
            <mxPoint x="614" y="-788" as="sourcePoint" />
            <mxPoint x="503" y="-811" as="targetPoint" />
          </mxGeometry>
        </mxCell>
        <mxCell id="LWM4A1ETtg7lc_S0Syz--115" value="" style="endArrow=none;html=1;rounded=0;exitX=1.003;exitY=0.808;exitDx=0;exitDy=0;exitPerimeter=0;entryX=0.502;entryY=0.037;entryDx=0;entryDy=0;entryPerimeter=0;" edge="1" parent="1">
          <mxGeometry width="50" height="50" relative="1" as="geometry">
            <mxPoint x="501" y="-788" as="sourcePoint" />
            <mxPoint x="390" y="-811" as="targetPoint" />
          </mxGeometry>
        </mxCell>
        <mxCell id="LWM4A1ETtg7lc_S0Syz--116" value="" style="endArrow=none;html=1;rounded=0;exitX=1.003;exitY=0.808;exitDx=0;exitDy=0;exitPerimeter=0;entryX=0.502;entryY=0.037;entryDx=0;entryDy=0;entryPerimeter=0;" edge="1" parent="1">
          <mxGeometry width="50" height="50" relative="1" as="geometry">
            <mxPoint x="387" y="-787" as="sourcePoint" />
            <mxPoint x="276" y="-810" as="targetPoint" />
          </mxGeometry>
        </mxCell>
        <mxCell id="LWM4A1ETtg7lc_S0Syz--117" value="" style="endArrow=none;html=1;rounded=0;exitX=0.344;exitY=-0.086;exitDx=0;exitDy=0;exitPerimeter=0;" edge="1" parent="1">
          <mxGeometry width="50" height="50" relative="1" as="geometry">
            <mxPoint x="390" y="-841" as="sourcePoint" />
            <mxPoint x="501" y="-865" as="targetPoint" />
          </mxGeometry>
        </mxCell>
        <mxCell id="LWM4A1ETtg7lc_S0Syz--119" value="" style="endArrow=none;html=1;rounded=0;exitX=0.344;exitY=-0.086;exitDx=0;exitDy=0;exitPerimeter=0;" edge="1" parent="1">
          <mxGeometry width="50" height="50" relative="1" as="geometry">
            <mxPoint x="278" y="-814" as="sourcePoint" />
            <mxPoint x="389" y="-838" as="targetPoint" />
          </mxGeometry>
        </mxCell>
        <mxCell id="LWM4A1ETtg7lc_S0Syz--120" value="" style="endArrow=none;html=1;rounded=0;exitX=0.344;exitY=-0.086;exitDx=0;exitDy=0;exitPerimeter=0;" edge="1" parent="1">
          <mxGeometry width="50" height="50" relative="1" as="geometry">
            <mxPoint x="391" y="-813" as="sourcePoint" />
            <mxPoint x="502" y="-837" as="targetPoint" />
          </mxGeometry>
        </mxCell>
        <mxCell id="LWM4A1ETtg7lc_S0Syz--121" value="" style="endArrow=none;html=1;rounded=0;exitX=0.344;exitY=-0.086;exitDx=0;exitDy=0;exitPerimeter=0;" edge="1" parent="1">
          <mxGeometry width="50" height="50" relative="1" as="geometry">
            <mxPoint x="501" y="-813" as="sourcePoint" />
            <mxPoint x="612" y="-837" as="targetPoint" />
          </mxGeometry>
        </mxCell>
        <mxCell id="LWM4A1ETtg7lc_S0Syz--122" value="" style="endArrow=none;html=1;rounded=0;exitX=0.344;exitY=-0.086;exitDx=0;exitDy=0;exitPerimeter=0;" edge="1" parent="1">
          <mxGeometry width="50" height="50" relative="1" as="geometry">
            <mxPoint x="276" y="-787" as="sourcePoint" />
            <mxPoint x="387" y="-811" as="targetPoint" />
          </mxGeometry>
        </mxCell>
        <mxCell id="LWM4A1ETtg7lc_S0Syz--123" value="" style="endArrow=none;html=1;rounded=0;exitX=0.344;exitY=-0.086;exitDx=0;exitDy=0;exitPerimeter=0;" edge="1" parent="1">
          <mxGeometry width="50" height="50" relative="1" as="geometry">
            <mxPoint x="390" y="-787" as="sourcePoint" />
            <mxPoint x="501" y="-811" as="targetPoint" />
          </mxGeometry>
        </mxCell>
        <mxCell id="LWM4A1ETtg7lc_S0Syz--124" value="" style="endArrow=none;html=1;rounded=0;exitX=0.344;exitY=-0.086;exitDx=0;exitDy=0;exitPerimeter=0;" edge="1" parent="1">
          <mxGeometry width="50" height="50" relative="1" as="geometry">
            <mxPoint x="502" y="-787" as="sourcePoint" />
            <mxPoint x="613" y="-811" as="targetPoint" />
          </mxGeometry>
        </mxCell>
        <mxCell id="LWM4A1ETtg7lc_S0Syz--125" value="" style="strokeWidth=1;shadow=0;dashed=0;align=center;html=1;shape=mxgraph.mockup.forms.rrect;rSize=0;fillColor=#eeeeee;strokeColor=#999999;gradientColor=#cccccc;align=left;spacingLeft=4;fontSize=17;fontColor=#666666;labelPosition=right;" vertex="1" parent="1">
          <mxGeometry x="241" y="-833" width="15" height="15" as="geometry" />
        </mxCell>
        <mxCell id="LWM4A1ETtg7lc_S0Syz--128" value="" style="strokeWidth=1;shadow=0;dashed=0;align=center;html=1;shape=mxgraph.mockup.forms.rrect;rSize=0;fillColor=#eeeeee;strokeColor=#999999;gradientColor=#cccccc;align=left;spacingLeft=4;fontSize=17;fontColor=#666666;labelPosition=right;" vertex="1" parent="1">
          <mxGeometry x="241" y="-806" width="15" height="15" as="geometry" />
        </mxCell>
        <mxCell id="LWM4A1ETtg7lc_S0Syz--129" value="" style="strokeWidth=1;shadow=0;dashed=0;align=center;html=1;shape=mxgraph.mockup.forms.rrect;rSize=0;fillColor=#eeeeee;strokeColor=#999999;gradientColor=#cccccc;align=left;spacingLeft=4;fontSize=17;fontColor=#666666;labelPosition=right;" vertex="1" parent="1">
          <mxGeometry x="241" y="-859.5" width="15" height="15" as="geometry" />
        </mxCell>
        <mxCell id="LWM4A1ETtg7lc_S0Syz--131" value="" style="verticalLabelPosition=bottom;shadow=0;dashed=0;align=center;html=1;verticalAlign=top;strokeWidth=1;shape=mxgraph.mockup.forms.colorPicker;chosenColor=#FFFFFF;" vertex="1" parent="1">
          <mxGeometry x="221" y="-892" width="54" height="25" as="geometry" />
        </mxCell>
        <mxCell id="LWM4A1ETtg7lc_S0Syz--132" value="&lt;b&gt;Select All&lt;/b&gt;" style="rounded=1;whiteSpace=wrap;html=1;arcSize=50;" vertex="1" parent="1">
          <mxGeometry x="448" y="-936" width="85" height="24" as="geometry" />
        </mxCell>
        <mxCell id="LWM4A1ETtg7lc_S0Syz--133" value="&lt;b&gt;Select Default&lt;/b&gt;" style="rounded=1;whiteSpace=wrap;html=1;arcSize=50;" vertex="1" parent="1">
          <mxGeometry x="548" y="-936" width="88" height="24" as="geometry" />
        </mxCell>
        <mxCell id="LWM4A1ETtg7lc_S0Syz--157" value="" style="rounded=0;whiteSpace=wrap;html=1;" vertex="1" parent="1">
          <mxGeometry x="63" y="-610" width="733" height="416" as="geometry" />
        </mxCell>
        <mxCell id="LWM4A1ETtg7lc_S0Syz--158" value="&lt;b&gt;Analyzing &amp;lt;filename&amp;gt;&lt;/b&gt;" style="rounded=0;whiteSpace=wrap;html=1;" vertex="1" parent="1">
          <mxGeometry x="63" y="-610" width="733" height="50" as="geometry" />
        </mxCell>
        <mxCell id="LWM4A1ETtg7lc_S0Syz--159" value="Analysis Status&lt;div&gt;(runtime, state explored...)&lt;/div&gt;" style="rounded=0;whiteSpace=wrap;html=1;" vertex="1" parent="1">
          <mxGeometry x="63" y="-560" width="240.5" height="152" as="geometry" />
        </mxCell>
        <mxCell id="LWM4A1ETtg7lc_S0Syz--164" value="" style="swimlane;shape=mxgraph.bootstrap.anchor;strokeColor=#000000;fillColor=#ffffff;fontColor=#666666;childLayout=stackLayout;horizontal=0;startSize=0;horizontalStack=1;resizeParent=1;resizeParentMax=0;resizeLast=0;collapsible=0;marginBottom=0;whiteSpace=wrap;html=1;" vertex="1" parent="1">
          <mxGeometry x="63.5" y="-407" width="240" height="30" as="geometry" />
        </mxCell>
        <mxCell id="LWM4A1ETtg7lc_S0Syz--165" value="Logs" style="text;strokeColor=inherit;align=center;verticalAlign=middle;spacingLeft=10;spacingRight=10;overflow=hidden;points=[[0,0.5],[1,0.5]];portConstraint=eastwest;rotatable=0;whiteSpace=wrap;html=1;fillColor=inherit;fontColor=inherit;fontSize=17;" vertex="1" parent="LWM4A1ETtg7lc_S0Syz--164">
          <mxGeometry width="75" height="30" as="geometry" />
        </mxCell>
        <mxCell id="LWM4A1ETtg7lc_S0Syz--166" value="Config" style="text;strokeColor=inherit;align=center;verticalAlign=middle;spacingLeft=10;spacingRight=10;overflow=hidden;points=[[0,0.5],[1,0.5]];portConstraint=eastwest;rotatable=0;whiteSpace=wrap;html=1;fillColor=inherit;fontColor=inherit;fontSize=17;" vertex="1" parent="LWM4A1ETtg7lc_S0Syz--164">
          <mxGeometry x="75" width="79" height="30" as="geometry" />
        </mxCell>
        <mxCell id="LWM4A1ETtg7lc_S0Syz--167" value="CLI" style="text;strokeColor=inherit;align=center;verticalAlign=middle;spacingLeft=10;spacingRight=10;overflow=hidden;points=[[0,0.5],[1,0.5]];portConstraint=eastwest;rotatable=0;whiteSpace=wrap;html=1;fillColor=inherit;fontColor=inherit;fontSize=17;" vertex="1" parent="LWM4A1ETtg7lc_S0Syz--164">
          <mxGeometry x="154" width="86" height="30" as="geometry" />
        </mxCell>
        <mxCell id="LWM4A1ETtg7lc_S0Syz--171" value="Log, Config, or CLI Information" style="rounded=0;whiteSpace=wrap;html=1;" vertex="1" parent="1">
          <mxGeometry x="63.5" y="-377" width="240" height="182" as="geometry" />
        </mxCell>
        <mxCell id="LWM4A1ETtg7lc_S0Syz--173" value="" style="rounded=1;whiteSpace=wrap;html=1;" vertex="1" parent="1">
          <mxGeometry x="339" y="-506" width="139" height="95" as="geometry" />
        </mxCell>
        <mxCell id="LWM4A1ETtg7lc_S0Syz--179" value="" style="rounded=1;whiteSpace=wrap;html=1;" vertex="1" parent="1">
          <mxGeometry x="489.5" y="-506" width="139" height="95" as="geometry" />
        </mxCell>
        <mxCell id="LWM4A1ETtg7lc_S0Syz--180" value="" style="rounded=1;whiteSpace=wrap;html=1;textShadow=0;shadow=0;glass=0;noLabel=0;snapToPoint=0;fixDash=0;container=0;collapsible=0;" vertex="1" parent="1">
          <mxGeometry x="336" y="-331" width="139" height="95" as="geometry" />
        </mxCell>
        <mxCell id="LWM4A1ETtg7lc_S0Syz--181" value="Vulnerabilities Detected (5)" style="text;html=1;align=center;verticalAlign=middle;whiteSpace=wrap;rounded=0;fontStyle=1" vertex="1" parent="1">
          <mxGeometry x="336" y="-536" width="165" height="30" as="geometry" />
        </mxCell>
        <mxCell id="LWM4A1ETtg7lc_S0Syz--182" value="" style="rounded=1;whiteSpace=wrap;html=1;" vertex="1" parent="1">
          <mxGeometry x="639" y="-506" width="139" height="95" as="geometry" />
        </mxCell>
        <mxCell id="LWM4A1ETtg7lc_S0Syz--184" value="&lt;b&gt;Vulnerabilities Not Detected (0)&lt;/b&gt;" style="text;html=1;align=center;verticalAlign=middle;whiteSpace=wrap;rounded=0;" vertex="1" parent="1">
          <mxGeometry x="333.5" y="-363.5" width="187" height="30" as="geometry" />
        </mxCell>
        <mxCell id="LWM4A1ETtg7lc_S0Syz--189" value="" style="html=1;verticalLabelPosition=bottom;labelBackgroundColor=#ffffff;verticalAlign=top;shadow=0;dashed=0;strokeWidth=1;shape=mxgraph.ios7ui.onOffButton;buttonState=on;strokeColor=#38D145;strokeColor2=#aaaaaa;fillColor=#38D145;fillColor2=#ffffff;" vertex="1" parent="1">
          <mxGeometry x="161.5" y="-458" width="43.5" height="15" as="geometry" />
        </mxCell>
        <mxCell id="LWM4A1ETtg7lc_S0Syz--190" value="" style="verticalLabelPosition=bottom;shadow=0;dashed=0;align=center;html=1;verticalAlign=top;strokeWidth=1;shape=mxgraph.mockup.misc.loading_circle_2;pointerEvents=1" vertex="1" parent="1">
          <mxGeometry x="507" y="-538" width="26" height="23" as="geometry" />
        </mxCell>
        <mxCell id="LWM4A1ETtg7lc_S0Syz--191" value="Category 1 (2)" style="text;html=1;align=center;verticalAlign=middle;whiteSpace=wrap;rounded=0;fontStyle=1" vertex="1" parent="1">
          <mxGeometry x="331.5" y="-498" width="103" height="30" as="geometry" />
        </mxCell>
        <mxCell id="LWM4A1ETtg7lc_S0Syz--192" value="Category 2 (2)" style="text;html=1;align=center;verticalAlign=middle;whiteSpace=wrap;rounded=0;fontStyle=1" vertex="1" parent="1">
          <mxGeometry x="489.5" y="-498" width="103" height="30" as="geometry" />
        </mxCell>
        <mxCell id="LWM4A1ETtg7lc_S0Syz--193" value="Category 3 (1)" style="text;html=1;align=center;verticalAlign=middle;whiteSpace=wrap;rounded=0;fontStyle=1" vertex="1" parent="1">
          <mxGeometry x="644.5" y="-499" width="103" height="30" as="geometry" />
        </mxCell>
        <mxCell id="LWM4A1ETtg7lc_S0Syz--194" value="" style="verticalLabelPosition=bottom;shadow=0;dashed=0;align=center;html=1;verticalAlign=top;strokeWidth=1;shape=mxgraph.mockup.navigation.scrollBar;strokeColor=#999999;barPos=20;fillColor2=#99ddff;strokeColor2=none;direction=north;" vertex="1" parent="1">
          <mxGeometry x="303.5" y="-560" width="20" height="366" as="geometry" />
        </mxCell>
        <mxCell id="LWM4A1ETtg7lc_S0Syz--198" value="" style="verticalLabelPosition=bottom;shadow=0;dashed=0;align=center;html=1;verticalAlign=top;strokeWidth=1;shape=mxgraph.mockup.misc.loading_circle_2;pointerEvents=1" vertex="1" parent="1">
          <mxGeometry x="528" y="-360" width="26" height="23" as="geometry" />
        </mxCell>
        <mxCell id="LWM4A1ETtg7lc_S0Syz--199" value="" style="verticalLabelPosition=bottom;shadow=0;dashed=0;align=center;html=1;verticalAlign=top;strokeWidth=1;shape=mxgraph.mockup.misc.help_icon;" vertex="1" parent="1">
          <mxGeometry x="358" y="-318" width="19" height="17" as="geometry" />
        </mxCell>
        <mxCell id="LWM4A1ETtg7lc_S0Syz--200" value="" style="endArrow=none;html=1;rounded=0;exitX=0.344;exitY=-0.086;exitDx=0;exitDy=0;exitPerimeter=0;" edge="1" parent="1">
          <mxGeometry width="50" height="50" relative="1" as="geometry">
            <mxPoint x="503" y="-840" as="sourcePoint" />
            <mxPoint x="614" y="-864" as="targetPoint" />
          </mxGeometry>
        </mxCell>
      </root>
    </mxGraphModel>
  </diagram>
</mxfile>
